<mxfile host="app.diagrams.net" modified="2022-01-14T07:35:49.878Z" agent="5.0 (Macintosh; Intel Mac OS X 10_15_7) AppleWebKit/537.36 (KHTML, like Gecko) Chrome/96.0.4664.45 Safari/537.36" etag="wmoJEvC4FzL7jm2SHXRk" version="16.2.6" type="github">
  <diagram id="0DkvYxW-jrH4pXN9hQSn" name="Page-1">
    <mxGraphModel dx="946" dy="1726" grid="1" gridSize="10" guides="1" tooltips="1" connect="1" arrows="1" fold="1" page="1" pageScale="1" pageWidth="827" pageHeight="1169" math="0" shadow="0">
      <root>
        <mxCell id="0" />
        <mxCell id="1" parent="0" />
        <mxCell id="krKJFWs0MbuUQecWiT6b-23" value="" style="edgeStyle=orthogonalEdgeStyle;rounded=0;orthogonalLoop=1;jettySize=auto;html=1;entryX=0.5;entryY=0;entryDx=0;entryDy=0;" edge="1" parent="1" source="krKJFWs0MbuUQecWiT6b-1" target="krKJFWs0MbuUQecWiT6b-4">
          <mxGeometry relative="1" as="geometry" />
        </mxCell>
        <mxCell id="krKJFWs0MbuUQecWiT6b-24" value="api发现" style="edgeLabel;html=1;align=center;verticalAlign=middle;resizable=0;points=[];" vertex="1" connectable="0" parent="krKJFWs0MbuUQecWiT6b-23">
          <mxGeometry x="-0.6" y="-1" relative="1" as="geometry">
            <mxPoint x="1" y="10" as="offset" />
          </mxGeometry>
        </mxCell>
        <mxCell id="krKJFWs0MbuUQecWiT6b-1" value="gateway网关" style="rounded=0;whiteSpace=wrap;html=1;verticalAlign=top;fillColor=#ffe6cc;strokeColor=#d79b00;" vertex="1" parent="1">
          <mxGeometry x="80" y="40" width="640" height="60" as="geometry" />
        </mxCell>
        <mxCell id="krKJFWs0MbuUQecWiT6b-2" value="&lt;b&gt;nacos&lt;/b&gt;&lt;br&gt;注册中心&lt;br&gt;配置中心" style="rounded=0;whiteSpace=wrap;html=1;" vertex="1" parent="1">
          <mxGeometry x="760" y="120" width="120" height="60" as="geometry" />
        </mxCell>
        <mxCell id="krKJFWs0MbuUQecWiT6b-3" value="大数据-适配层" style="rounded=0;whiteSpace=wrap;html=1;fillColor=#dae8fc;strokeColor=#6c8ebf;" vertex="1" parent="1">
          <mxGeometry x="80" y="500" width="640" height="70" as="geometry" />
        </mxCell>
        <mxCell id="krKJFWs0MbuUQecWiT6b-38" value="" style="edgeStyle=orthogonalEdgeStyle;rounded=0;orthogonalLoop=1;jettySize=auto;html=1;exitX=1.003;exitY=0.777;exitDx=0;exitDy=0;entryX=0;entryY=0.5;entryDx=0;entryDy=0;exitPerimeter=0;" edge="1" parent="1" source="krKJFWs0MbuUQecWiT6b-4" target="krKJFWs0MbuUQecWiT6b-49">
          <mxGeometry relative="1" as="geometry">
            <mxPoint x="760" y="305.1" as="targetPoint" />
          </mxGeometry>
        </mxCell>
        <mxCell id="krKJFWs0MbuUQecWiT6b-39" value="logs" style="edgeLabel;html=1;align=center;verticalAlign=middle;resizable=0;points=[];" vertex="1" connectable="0" parent="krKJFWs0MbuUQecWiT6b-38">
          <mxGeometry x="-0.2118" relative="1" as="geometry">
            <mxPoint as="offset" />
          </mxGeometry>
        </mxCell>
        <mxCell id="krKJFWs0MbuUQecWiT6b-4" value="" style="rounded=1;whiteSpace=wrap;html=1;dashed=1;fillColor=#d5e8d4;strokeColor=#82b366;" vertex="1" parent="1">
          <mxGeometry x="80" y="150" width="640" height="310" as="geometry" />
        </mxCell>
        <mxCell id="krKJFWs0MbuUQecWiT6b-28" value="" style="edgeStyle=orthogonalEdgeStyle;rounded=0;orthogonalLoop=1;jettySize=auto;html=1;" edge="1" parent="1" source="krKJFWs0MbuUQecWiT6b-5" target="krKJFWs0MbuUQecWiT6b-11">
          <mxGeometry relative="1" as="geometry" />
        </mxCell>
        <mxCell id="krKJFWs0MbuUQecWiT6b-5" value="数据集成" style="rounded=0;whiteSpace=wrap;html=1;align=center;verticalAlign=top;fontStyle=1;fillColor=#f8cecc;strokeColor=#b85450;" vertex="1" parent="1">
          <mxGeometry x="600" y="170" width="90" height="100" as="geometry" />
        </mxCell>
        <mxCell id="krKJFWs0MbuUQecWiT6b-27" value="" style="edgeStyle=orthogonalEdgeStyle;rounded=0;orthogonalLoop=1;jettySize=auto;html=1;" edge="1" parent="1" source="krKJFWs0MbuUQecWiT6b-6" target="krKJFWs0MbuUQecWiT6b-11">
          <mxGeometry relative="1" as="geometry" />
        </mxCell>
        <mxCell id="krKJFWs0MbuUQecWiT6b-30" value="dubbo" style="edgeLabel;html=1;align=center;verticalAlign=middle;resizable=0;points=[];" vertex="1" connectable="0" parent="krKJFWs0MbuUQecWiT6b-27">
          <mxGeometry x="0.6769" y="2" relative="1" as="geometry">
            <mxPoint as="offset" />
          </mxGeometry>
        </mxCell>
        <mxCell id="krKJFWs0MbuUQecWiT6b-6" value="数据研发" style="rounded=0;whiteSpace=wrap;html=1;align=center;verticalAlign=top;fontStyle=1;fillColor=#f8cecc;strokeColor=#b85450;" vertex="1" parent="1">
          <mxGeometry x="470" y="170" width="90" height="100" as="geometry" />
        </mxCell>
        <mxCell id="krKJFWs0MbuUQecWiT6b-7" value="数据治理" style="rounded=0;whiteSpace=wrap;html=1;align=center;verticalAlign=top;fontStyle=1" vertex="1" parent="1">
          <mxGeometry x="350" y="170" width="90" height="100" as="geometry" />
        </mxCell>
        <mxCell id="krKJFWs0MbuUQecWiT6b-9" value="数智服务" style="rounded=0;whiteSpace=wrap;html=1;align=center;verticalAlign=top;fontStyle=1" vertex="1" parent="1">
          <mxGeometry x="100" y="170" width="90" height="100" as="geometry" />
        </mxCell>
        <mxCell id="krKJFWs0MbuUQecWiT6b-10" value="&lt;b&gt;基础服务&lt;/b&gt;" style="rounded=0;whiteSpace=wrap;html=1;verticalAlign=top;fillColor=#e1d5e7;strokeColor=#9673a6;" vertex="1" parent="1">
          <mxGeometry x="345" y="335" width="110" height="90" as="geometry" />
        </mxCell>
        <mxCell id="krKJFWs0MbuUQecWiT6b-15" value="" style="edgeStyle=orthogonalEdgeStyle;rounded=0;orthogonalLoop=1;jettySize=auto;html=1;entryX=0.786;entryY=-0.014;entryDx=0;entryDy=0;entryPerimeter=0;" edge="1" parent="1" source="krKJFWs0MbuUQecWiT6b-11" target="krKJFWs0MbuUQecWiT6b-3">
          <mxGeometry relative="1" as="geometry" />
        </mxCell>
        <mxCell id="krKJFWs0MbuUQecWiT6b-16" value="任务流发布" style="edgeLabel;html=1;align=center;verticalAlign=middle;resizable=0;points=[];" vertex="1" connectable="0" parent="krKJFWs0MbuUQecWiT6b-15">
          <mxGeometry x="-0.3333" y="2" relative="1" as="geometry">
            <mxPoint as="offset" />
          </mxGeometry>
        </mxCell>
        <mxCell id="krKJFWs0MbuUQecWiT6b-17" value="任务实例查询" style="edgeLabel;html=1;align=center;verticalAlign=middle;resizable=0;points=[];" vertex="1" connectable="0" parent="krKJFWs0MbuUQecWiT6b-15">
          <mxGeometry x="0.0222" relative="1" as="geometry">
            <mxPoint as="offset" />
          </mxGeometry>
        </mxCell>
        <mxCell id="krKJFWs0MbuUQecWiT6b-11" value="任务运维" style="rounded=0;whiteSpace=wrap;html=1;verticalAlign=top;fontStyle=1;fillColor=#e1d5e7;strokeColor=#9673a6;" vertex="1" parent="1">
          <mxGeometry x="520" y="335" width="120" height="80" as="geometry" />
        </mxCell>
        <mxCell id="krKJFWs0MbuUQecWiT6b-13" value="" style="endArrow=classic;html=1;rounded=0;entryX=0.5;entryY=0;entryDx=0;entryDy=0;exitX=0.5;exitY=1;exitDx=0;exitDy=0;" edge="1" parent="1" source="krKJFWs0MbuUQecWiT6b-10" target="krKJFWs0MbuUQecWiT6b-3">
          <mxGeometry width="50" height="50" relative="1" as="geometry">
            <mxPoint x="480" y="320" as="sourcePoint" />
            <mxPoint x="530" y="270" as="targetPoint" />
          </mxGeometry>
        </mxCell>
        <mxCell id="krKJFWs0MbuUQecWiT6b-18" value="工作空间/项目/数据源/资源组同步" style="edgeLabel;html=1;align=center;verticalAlign=middle;resizable=0;points=[];" vertex="1" connectable="0" parent="krKJFWs0MbuUQecWiT6b-13">
          <mxGeometry x="-0.2444" relative="1" as="geometry">
            <mxPoint x="-1" y="-10" as="offset" />
          </mxGeometry>
        </mxCell>
        <mxCell id="krKJFWs0MbuUQecWiT6b-20" value="分布式ID&lt;br&gt;用户权限&lt;br&gt;工作空间&lt;br&gt;项目中心" style="text;html=1;strokeColor=none;fillColor=none;align=center;verticalAlign=middle;whiteSpace=wrap;rounded=0;dashed=1;" vertex="1" parent="1">
          <mxGeometry x="367.5" y="355" width="65" height="70" as="geometry" />
        </mxCell>
        <mxCell id="krKJFWs0MbuUQecWiT6b-8" value="数据资产" style="rounded=0;whiteSpace=wrap;html=1;align=center;verticalAlign=top;fontStyle=1" vertex="1" parent="1">
          <mxGeometry x="230" y="170" width="90" height="100" as="geometry" />
        </mxCell>
        <mxCell id="krKJFWs0MbuUQecWiT6b-31" value="登录认证/权限拦截/统一对外API/熔断限流（resilicense4j/hystrix/guava）" style="text;html=1;strokeColor=none;fillColor=none;align=center;verticalAlign=middle;whiteSpace=wrap;rounded=0;dashed=1;" vertex="1" parent="1">
          <mxGeometry x="175" y="80" width="445" height="10" as="geometry" />
        </mxCell>
        <mxCell id="krKJFWs0MbuUQecWiT6b-32" value="离线任务&lt;br&gt;实时任务&lt;br&gt;运行记录&lt;br&gt;规范建表" style="text;html=1;strokeColor=none;fillColor=none;align=center;verticalAlign=middle;whiteSpace=wrap;rounded=0;dashed=1;" vertex="1" parent="1">
          <mxGeometry x="615" y="200" width="65" height="70" as="geometry" />
        </mxCell>
        <mxCell id="krKJFWs0MbuUQecWiT6b-36" value="离线研发&lt;br&gt;实时研发&lt;br&gt;算法研发&lt;br&gt;API研发" style="text;html=1;strokeColor=none;fillColor=none;align=center;verticalAlign=middle;whiteSpace=wrap;rounded=0;" vertex="1" parent="1">
          <mxGeometry x="490" y="205" width="50" height="55" as="geometry" />
        </mxCell>
        <mxCell id="krKJFWs0MbuUQecWiT6b-40" value="运维大屏&lt;br&gt;任务监控" style="text;html=1;strokeColor=none;fillColor=none;align=center;verticalAlign=middle;whiteSpace=wrap;rounded=0;" vertex="1" parent="1">
          <mxGeometry x="550" y="360" width="60" height="50" as="geometry" />
        </mxCell>
        <mxCell id="krKJFWs0MbuUQecWiT6b-41" value="API&lt;br&gt;数据共享" style="text;html=1;strokeColor=none;fillColor=none;align=center;verticalAlign=middle;whiteSpace=wrap;rounded=0;" vertex="1" parent="1">
          <mxGeometry x="115" y="217.5" width="60" height="30" as="geometry" />
        </mxCell>
        <mxCell id="krKJFWs0MbuUQecWiT6b-42" value="资产地图&lt;br&gt;主数据" style="text;html=1;strokeColor=none;fillColor=none;align=center;verticalAlign=middle;whiteSpace=wrap;rounded=0;" vertex="1" parent="1">
          <mxGeometry x="245" y="218" width="60" height="30" as="geometry" />
        </mxCell>
        <mxCell id="krKJFWs0MbuUQecWiT6b-43" value="数据标准&lt;br&gt;元数据&lt;br&gt;数据质量" style="text;html=1;strokeColor=none;fillColor=none;align=center;verticalAlign=middle;whiteSpace=wrap;rounded=0;" vertex="1" parent="1">
          <mxGeometry x="365" y="218" width="60" height="30" as="geometry" />
        </mxCell>
        <mxCell id="krKJFWs0MbuUQecWiT6b-47" value="&lt;b&gt;sentinel&lt;/b&gt;&lt;br&gt;熔断降级" style="rounded=0;whiteSpace=wrap;html=1;fillColor=#E6E6E6;" vertex="1" parent="1">
          <mxGeometry x="760" y="40" width="120" height="60" as="geometry" />
        </mxCell>
        <mxCell id="krKJFWs0MbuUQecWiT6b-48" value="&lt;b&gt;seata&lt;/b&gt;&lt;br&gt;分布式事务" style="rounded=0;whiteSpace=wrap;html=1;fillColor=#E6E6E6;" vertex="1" parent="1">
          <mxGeometry x="760" y="197.5" width="120" height="60" as="geometry" />
        </mxCell>
        <mxCell id="krKJFWs0MbuUQecWiT6b-49" value="&lt;b&gt;日志中心&lt;/b&gt;" style="rounded=0;whiteSpace=wrap;html=1;" vertex="1" parent="1">
          <mxGeometry x="760" y="360" width="120" height="60" as="geometry" />
        </mxCell>
        <mxCell id="krKJFWs0MbuUQecWiT6b-50" value="&lt;b&gt;运维告警中心&lt;/b&gt;" style="rounded=0;whiteSpace=wrap;html=1;" vertex="1" parent="1">
          <mxGeometry x="760" y="440" width="120" height="60" as="geometry" />
        </mxCell>
        <mxCell id="krKJFWs0MbuUQecWiT6b-53" value="应用引擎中心" style="whiteSpace=wrap;html=1;aspect=fixed;fontStyle=1;verticalAlign=top;fillColor=#E6E6E6;" vertex="1" parent="1">
          <mxGeometry x="150" y="330" width="100" height="100" as="geometry" />
        </mxCell>
        <mxCell id="krKJFWs0MbuUQecWiT6b-54" value="activiti&lt;br&gt;&lt;br&gt;drools" style="text;html=1;strokeColor=none;fillColor=none;align=center;verticalAlign=middle;whiteSpace=wrap;rounded=0;" vertex="1" parent="1">
          <mxGeometry x="170" y="360" width="60" height="60" as="geometry" />
        </mxCell>
        <mxCell id="krKJFWs0MbuUQecWiT6b-57" value="&lt;b&gt;xxl-job&lt;/b&gt;&lt;br&gt;应用分布式调度" style="rounded=0;whiteSpace=wrap;html=1;" vertex="1" parent="1">
          <mxGeometry x="760" y="280" width="120" height="60" as="geometry" />
        </mxCell>
        <mxCell id="krKJFWs0MbuUQecWiT6b-58" value="nginx" style="rounded=0;whiteSpace=wrap;html=1;fontColor=#191919;fillColor=#FFFFFF;" vertex="1" parent="1">
          <mxGeometry x="340" y="-60" width="120" height="60" as="geometry" />
        </mxCell>
      </root>
    </mxGraphModel>
  </diagram>
</mxfile>
